<svg width="50" height="50" viewBox="0 0 50 50" fill="none" xmlns="http://www.w3.org/2000/svg">
<g id="add">
<path id="Icon" d="M25 8.33333C26.1506 8.33333 27.0833 9.26607 27.0833 10.4167V22.9167H39.5833C40.7339 22.9167 41.6666 23.8494 41.6666 25C41.6666 26.1506 40.7339 27.0833 39.5833 27.0833H27.0833V39.5833C27.0833 40.7339 26.1506 41.6667 25 41.6667C23.8494 41.6667 22.9166 40.7339 22.9166 39.5833V27.0833H10.4166C9.26605 27.0833 8.33331 26.1506 8.33331 25C8.33331 23.8494 9.26605 22.9167 10.4166 22.9167H22.9166V10.4167C22.9166 9.26607 23.8494 8.33333 25 8.33333Z" fill="#E7E7E7"/>
</g>
</svg>
